<svg xmlns="http://www.w3.org/2000/svg" viewBox="0 0 32 32" width="32" height="32">
  <!-- Palette base shape -->
  <path d="M16 3C9.37 3 4 8.04 4 14.2c0 3.7 1.9 7 4.8 9.1.7.5 1.1 1.3 1.1 2.1v.1c0 1.4 1.1 2.5 2.5 2.5h7.2c1.4 0 2.5-1.1 2.5-2.5v-.1c0-.8.4-1.6 1.1-2.1 2.9-2.1 4.8-5.4 4.8-9.1C28 8.04 22.63 3 16 3z" fill="#fdf9f3" stroke="#3a3733" stroke-width="1.5"/>
  <!-- Thumb hole -->
  <circle cx="23" cy="20" r="2.8" fill="#3a3733" opacity="0.15"/>
  <circle cx="23" cy="20" r="2.2" fill="#fdf9f3" stroke="#3a3733" stroke-width="1"/>
  <!-- Paint dabs -->
  <circle cx="10.5" cy="13" r="2.5" fill="#e07856"/>
  <circle cx="16"   cy="10" r="2.5" fill="#6a8f72"/>
  <circle cx="21.5" cy="13" r="2.5" fill="#f5c26b"/>
  <circle cx="19.5" cy="18.5" r="2.2" fill="#e8a598"/>
  <circle cx="12"   cy="18.5" r="2.2" fill="#a8c5ac"/>
</svg>
